<?xml version="1.0" standalone="no"?>
<!DOCTYPE svg PUBLIC "-//W3C//DTD SVG 20010904//EN"
 "http://www.w3.org/TR/2001/REC-SVG-20010904/DTD/svg10.dtd">
<svg version="1.0" xmlns="http://www.w3.org/2000/svg"
 width="260.000000pt" height="220.000000pt" viewBox="0 0 260.000000 220.000000"
 preserveAspectRatio="xMidYMid meet">

<g transform="translate(0.000000,220.000000) scale(0.100000,-0.100000)"
fill="#000000" stroke="none">
<path d="M1655 2180 c-223 -27 -1460 -189 -1534 -201 -85 -13 -112 -28 -51
-29 110 0 672 -31 739 -40 139 -19 145 -26 289 -335 132 -283 128 -275 161
-275 37 0 130 34 616 225 491 194 705 285 719 307 13 21 -7 192 -28 243 -17
41 -87 89 -160 110 -75 22 -552 19 -751 -5z"/>
<path d="M7 1923 c-13 -12 -6 -78 12 -118 45 -99 248 -395 298 -434 52 -42 53
-40 53 202 0 159 4 229 13 247 25 50 42 52 313 26 137 -13 251 -22 254 -19 9
9 -41 43 -78 52 -44 12 -250 27 -542 41 -253 12 -314 12 -323 3z"/>
<path d="M415 1825 l-25 -24 0 -370 c0 -211 4 -381 10 -395 5 -14 20 -32 32
-40 24 -16 693 -116 774 -116 67 0 69 8 69 214 l0 181 -30 5 c-25 4 -36 16
-67 78 l-38 73 0 -194 c0 -175 -2 -196 -18 -210 -17 -16 -36 -14 -287 22 -243
34 -270 40 -287 61 -17 21 -18 43 -16 293 3 242 5 271 20 281 12 7 81 5 250
-11 128 -12 235 -20 237 -18 3 3 -63 132 -73 143 -2 2 -504 52 -522 52 -3 0
-16 -11 -29 -25z"/>
<path d="M2508 1760 c-44 -26 -1123 -451 -1182 -466 l-26 -6 0 -173 c0 -95 -3
-181 -6 -189 -9 -22 15 -13 146 59 58 32 283 150 500 262 433 225 512 269 552
306 30 28 58 111 58 174 0 44 -9 52 -42 33z"/>
<path d="M760 1597 c-19 -6 -55 -32 -80 -57 -133 -132 -88 -366 85 -446 83
-39 164 -27 235 34 53 45 82 102 87 177 6 75 -8 129 -50 191 -60 91 -179 134
-277 101z m137 -78 c40 -15 82 -57 104 -104 62 -134 -47 -288 -183 -261 -94
19 -166 144 -139 243 28 103 125 157 218 122z"/>
<path d="M827 1436 c-71 -65 -33 -196 56 -196 43 0 73 22 87 66 17 50 5 98
-31 128 -38 33 -78 33 -112 2z"/>
<path d="M2199 1359 c-11 -5 -15 -17 -12 -32 8 -41 -25 -87 -172 -238 -118
-121 -149 -159 -180 -221 -49 -101 -58 -185 -25 -252 43 -91 149 -108 231 -38
18 15 56 63 85 108 70 109 102 135 179 146 11 2 21 11 23 21 3 14 -4 17 -38
17 -74 0 -115 -34 -202 -165 -60 -90 -104 -125 -158 -125 -104 0 -129 147 -48
288 18 31 94 120 174 203 150 155 174 188 174 241 0 43 -11 59 -31 47z"/>
<path d="M1618 1057 c-126 -67 -228 -127 -228 -133 0 -21 87 -92 126 -103 141
-39 249 40 307 224 16 50 32 135 25 135 -1 0 -105 -55 -230 -123z m50 -79 c21
-21 14 -57 -12 -64 -33 -8 -46 2 -46 36 0 37 33 53 58 28z"/>
<path d="M2042 968 c-15 -15 -17 -288 -2 -288 5 0 22 19 36 43 77 123 140 170
222 165 40 -3 47 -6 50 -26 5 -33 -15 -52 -53 -52 -18 0 -43 -9 -56 -20 l-24
-19 40 -1 c75 -1 170 -20 183 -38 10 -12 13 -41 9 -106 -4 -77 -8 -93 -26
-108 -12 -9 -105 -60 -207 -113 -158 -83 -184 -99 -184 -119 0 -13 6 -28 13
-34 6 -5 126 -40 266 -76 196 -51 257 -63 263 -54 4 7 8 185 8 394 0 294 -3
384 -12 391 -7 6 -116 22 -243 37 -126 15 -239 29 -251 31 -11 3 -26 -1 -32
-7z m96 -107 c4 -26 -13 -42 -35 -34 -14 5 -18 45 -6 57 14 14 38 0 41 -23z
m350 -49 c4 -29 -26 -42 -44 -18 -17 24 -6 48 20 44 13 -2 22 -12 24 -26z
m-344 -494 c16 -26 -16 -57 -38 -38 -17 13 -21 42 -9 54 11 11 35 3 47 -16z
m350 -74 c9 -24 -5 -45 -28 -42 -24 3 -33 32 -16 53 13 16 36 10 44 -11z"/>
<path d="M1729 843 c-43 -51 -161 -67 -238 -33 -24 11 -45 20 -47 20 -2 0 -4
-92 -4 -205 l0 -205 28 -7 c35 -10 229 -10 265 0 l27 7 0 220 c0 121 -4 220
-9 220 -5 0 -15 -7 -22 -17z"/>
<path d="M2198 735 c-15 -8 -47 -46 -72 -84 -51 -80 -95 -116 -154 -129 -43
-10 -106 -2 -125 17 -7 7 -19 5 -38 -5 -23 -12 -29 -21 -29 -49 0 -29 4 -36
28 -42 15 -4 34 -6 42 -4 19 3 470 224 530 259 l45 26 -30 8 c-66 17 -169 19
-197 3z"/>
<path d="M2153 561 l-273 -136 0 -62 0 -63 40 0 c31 0 85 22 231 96 276 138
266 130 274 207 4 35 5 71 4 79 -3 12 -68 -16 -276 -121z"/>
<path d="M1970 620 c-20 -11 -28 -19 -19 -20 9 0 27 9 40 20 30 24 24 24 -21
0z"/>
<path d="M1360 311 l0 -102 43 -18 c124 -53 259 -54 400 -1 l57 21 0 101 c0
99 0 100 -22 94 -157 -46 -343 -46 -460 -1 -16 7 -18 -2 -18 -94z"/>
</g>
</svg>
