<?xml version="1.0" standalone="no"?>
<!DOCTYPE svg PUBLIC "-//W3C//DTD SVG 20010904//EN"
 "http://www.w3.org/TR/2001/REC-SVG-20010904/DTD/svg10.dtd">
<svg version="1.0" xmlns="http://www.w3.org/2000/svg"
 width="268.000000pt" height="188.000000pt" viewBox="0 0 268.000000 188.000000"
 preserveAspectRatio="xMidYMid meet">

<g transform="translate(0.000000,188.000000) scale(0.100000,-0.100000)"
fill="#000000" stroke="none">
<path d="M1250 1740 c-349 -55 -589 -411 -500 -740 54 -198 260 -512 520 -793
l72 -78 62 67 c269 294 484 620 531 809 66 264 -77 559 -330 679 -113 54 -241
74 -355 56z m125 -225 c23 -22 25 -32 25 -115 0 -83 -2 -93 -25 -115 -29 -30
-45 -31 -79 -4 -25 20 -26 24 -26 119 0 95 1 99 26 119 34 27 50 26 79 -4z
m-201 -32 l14 -48 12 48 c10 39 16 47 36 47 l23 0 -25 -72 c-14 -43 -24 -94
-24 -130 0 -51 -2 -58 -20 -58 -17 0 -20 7 -20 53 0 31 -10 80 -25 121 -30 83
-30 86 -5 86 15 0 23 -12 34 -47z m296 -63 c0 -103 1 -110 20 -110 19 0 20 7
20 110 0 103 1 110 20 110 19 0 20 -7 20 -109 0 -60 -3 -117 -6 -126 -15 -37
-82 -38 -106 -1 -4 6 -8 62 -8 124 0 105 1 112 20 112 19 0 20 -7 20 -110z
m-231 -307 c12 -60 25 -118 28 -130 4 -18 1 -23 -15 -23 -13 0 -22 9 -26 25
-9 34 -53 36 -58 3 -2 -15 -11 -24 -26 -26 -19 -3 -23 0 -18 15 3 10 15 61 26
113 28 127 29 130 49 130 14 0 22 -20 40 -107z m155 91 c20 -20 21 -97 2 -113
-13 -11 -12 -20 5 -68 23 -69 24 -65 -3 -61 -18 2 -26 14 -37 56 -8 28 -18 52
-22 52 -5 0 -9 -25 -9 -55 0 -48 -2 -55 -20 -55 -19 0 -20 7 -20 130 l0 130
44 0 c27 0 51 -6 60 -16z m164 -1 c-2 -13 -14 -19 -41 -21 -35 -3 -37 -5 -37
-38 0 -32 2 -34 35 -34 28 0 35 -4 35 -20 0 -16 -7 -20 -35 -20 -33 0 -35 -2
-35 -35 0 -34 1 -35 40 -35 33 0 40 -3 40 -20 0 -18 -7 -20 -60 -20 l-60 0 0
130 0 130 61 0 c52 0 60 -2 57 -17z m-448 -343 c0 -53 2 -60 20 -60 18 0 20 7
20 60 0 53 2 60 20 60 19 0 20 -7 20 -135 0 -128 -1 -135 -20 -135 -18 0 -20
7 -20 60 0 53 -2 60 -20 60 -18 0 -20 -7 -20 -60 0 -53 -2 -60 -20 -60 -19 0
-20 7 -20 135 0 128 1 135 20 135 18 0 20 -7 20 -60z m228 38 c3 -15 -4 -18
-37 -18 l-41 0 0 -40 c0 -39 1 -40 36 -40 28 0 35 -3 32 -17 -2 -13 -13 -18
-36 -18 -30 0 -32 -2 -32 -37 0 -38 0 -38 40 -38 33 0 40 -3 40 -20 0 -18 -7
-20 -60 -20 l-60 0 0 135 0 136 57 -3 c46 -2 59 -7 61 -20z m122 2 c23 -23 27
-89 8 -120 -9 -15 -10 -27 -1 -52 27 -78 27 -80 2 -76 -18 2 -26 14 -37 56 -8
28 -18 52 -23 52 -5 0 -9 -25 -9 -55 0 -48 -2 -55 -20 -55 -19 0 -20 7 -20
135 l0 135 40 0 c27 0 47 -7 60 -20z m168 -2 c3 -15 -4 -18 -37 -18 l-41 0 0
-40 c0 -39 1 -40 36 -40 28 0 35 -3 32 -17 -2 -13 -13 -18 -36 -18 -30 0 -32
-2 -32 -37 0 -38 0 -38 40 -38 33 0 40 -3 40 -20 0 -18 -7 -20 -60 -20 l-60 0
0 135 0 136 57 -3 c46 -2 59 -7 61 -20z"/>
<path d="M1315 1477 c-3 -7 -5 -47 -3 -88 3 -66 5 -74 23 -74 18 0 20 7 20 85
0 73 -2 85 -18 88 -9 2 -20 -3 -22 -11z"/>
<path d="M1191 1108 c-1 -14 -4 -33 -7 -42 -4 -11 -1 -16 10 -16 17 0 19 19 6
60 l-8 25 -1 -27z"/>
<path d="M1330 1145 c0 -28 4 -35 20 -35 16 0 20 7 20 35 0 28 -4 35 -20 35
-16 0 -20 -7 -20 -35z"/>
<path d="M1400 840 c0 -34 3 -41 18 -38 12 2 17 13 17 38 0 25 -5 36 -17 38
-15 3 -18 -4 -18 -38z"/>
</g>
</svg>